<?xml version="1.0" encoding="utf-8"?>
<!-- Generator: Adobe Illustrator 26.0.0, SVG Export Plug-In . SVG Version: 6.00 Build 0)  -->
<svg version="1.1" id="Ebene_1" xmlns="http://www.w3.org/2000/svg" xmlns:xlink="http://www.w3.org/1999/xlink" x="0px" y="0px"
	 viewBox="0 0 24 24" style="enable-background:new 0 0 24 24;" xml:space="preserve">
<style type="text/css">
	.st0{fill:#FCFCFC;}
</style>
<g>
	<path d="M16.7,23.1c-0.5,0-1-0.2-1.3-0.5L6,13.3C5.7,13,5.5,12.5,5.5,12c0-0.5,0.2-1,0.6-1.3l9.3-9.2c0.4-0.3,0.8-0.5,1.3-0.5
		c0.5,0,1,0.2,1.3,0.5c0.4,0.4,0.6,0.8,0.5,1.3c0,0.5-0.2,1-0.6,1.3l-6.4,6.3c-0.4,0.4-0.6,0.9-0.6,1.5c0,0.6,0.2,1.1,0.6,1.5
		l6.4,6.3c0.4,0.4,0.6,0.8,0.6,1.3s-0.2,1-0.5,1.3C17.6,22.9,17.2,23.1,16.7,23.1z"/>
	<path class="st0" d="M16.7,1.1L16.7,1.1c0.5,0,0.9,0.2,1.2,0.5c0.3,0.3,0.5,0.8,0.5,1.2c0,0.5-0.2,0.9-0.5,1.2l-6.4,6.3
		c-0.4,0.4-0.7,1-0.7,1.6c0,0.6,0.2,1.2,0.7,1.6l6.4,6.3c0.3,0.3,0.5,0.8,0.5,1.2c0,0.5-0.2,0.9-0.5,1.2c-0.3,0.3-0.8,0.5-1.2,0.5
		c-0.5,0-0.9-0.2-1.2-0.5l-9.3-9.2c-0.3-0.3-0.5-0.8-0.5-1.2c0-0.5,0.2-0.9,0.5-1.2l9.3-9.2C15.8,1.2,16.2,1.1,16.7,1.1 M16.7,0.8
		c-0.5,0-1,0.2-1.4,0.6l-9.3,9.2c-0.8,0.8-0.8,2.1,0,2.8l9.3,9.2c0.4,0.4,0.9,0.6,1.4,0.6c0.5,0,1-0.2,1.4-0.6h0
		c0.8-0.8,0.8-2.1,0-2.8l-6.4-6.3c-0.8-0.8-0.8-2.1,0-2.9l6.4-6.3c0.8-0.8,0.8-2.1,0-2.8l0,0C17.7,1,17.2,0.8,16.7,0.8L16.7,0.8z"/>
</g>
</svg>
